<?xml version="1.0" encoding="UTF-8"?>
<!DOCTYPE svg PUBLIC "-//W3C//DTD SVG 1.1//EN" "http://www.w3.org/Graphics/SVG/1.1/DTD/svg11.dtd">
<!-- Creator: CorelDRAW 2018 (64 Bit Versão de avaliação) -->
<svg xmlns="http://www.w3.org/2000/svg" xml:space="preserve" width="66.5mm" height="98mm" version="1.1" style="shape-rendering:geometricPrecision; text-rendering:geometricPrecision; image-rendering:optimizeQuality; fill-rule:evenodd; clip-rule:evenodd"
viewBox="0 0 6650 9800"
 xmlns:xlink="http://www.w3.org/1999/xlink">
 <defs>
  <style type="text/css">
   <![CDATA[
    .str0 {stroke:#373435;stroke-width:50;stroke-miterlimit:22.9256}
    .str3 {stroke:#373435;stroke-width:25;stroke-miterlimit:22.9256}
    .str1 {stroke:#373435;stroke-width:20;stroke-miterlimit:22.9256}
    .str2 {stroke:#373435;stroke-width:10;stroke-miterlimit:22.9256}
    .fil5 {fill:none}
    .fil2 {fill:#FEFEFE}
    .fil6 {fill:#373435}
    .fil1 {fill:#373435}
    .fil0 {fill:#FDD1A1}
    .fil3 {fill:#847059}
    .fil8 {fill:#4E5A62}
    .fil7 {fill:#4E5A62;fill-rule:nonzero}
    .fil4 {fill:#373435;fill-opacity:0.701961}
   ]]>
  </style>
 </defs>
 <g id="Camada_x0020_1">
  <metadata id="CorelCorpID_0Corel-Layer"/>
  <g id="Rosto">
   <path id="rosto" class="fil0 str0" d="M2861.07 506.38c-706.52,-69.83 -1267.36,112.81 -1314.38,1185.73 -0.61,455.94 46.3,951.08 119.22,1363.25 286.35,451.28 634.68,694.42 907.14,916.59 121.04,24 185.56,34.03 292.22,38.05 106.66,-4.02 172.6,-14.05 293.64,-38.05 272.46,-222.17 620.79,-465.31 907.14,-916.59 72.92,-412.17 119.83,-907.31 119.22,-1363.25 -47.02,-1072.92 -617.68,-1255.56 -1324.2,-1185.73z"/>
   <path id="máscara" class="fil1 str1" d="M3158.91 3971.95c355.9,-267.92 670.28,-565.02 907.14,-916.59l-1161.05 -545.36 -1239.09 545.36c160.54,289.21 573.49,673.32 907.14,916.59 196.44,53.43 391.69,52.87 585.86,0z"/>
   <g id="Olho">
    <path id="olho_x0020_" class="fil2" d="M2574.01 2251.83c36.46,-28.95 62.02,-76.02 15.68,-116.04 -226.42,-177.96 -489.02,-105.27 -571.31,19.02 105.67,224.44 412.65,178.1 555.63,97.02z"/>
    <ellipse id="íris" class="fil3 str2" cx="2317.13" cy="2176.36" rx="86.49" ry="141.1"/>
    <path class="fil4" d="M2317.13 2035.26c47.77,0 86.49,63.17 86.49,141.1 0,77.92 -38.72,141.09 -86.49,141.09 -47.77,0 -86.49,-63.17 -86.49,-141.09 0,-77.93 38.72,-141.1 86.49,-141.1z"/>
    <path id="cílios" class="fil5 str1" d="M2560.83 2121.05c-118.38,-122.84 -451.34,-123.61 -542.45,33.76 17.24,30.13 48.15,82.94 73.68,101.96m95.99 45.64c84.53,23.46 183.14,17.25 269.7,-1.71"/>
   </g>
   <g id="Olho_0">
    <path id="olho_x0020__1" class="fil2" d="M3249.11 2251.83c-36.46,-28.95 -62.02,-76.02 -15.68,-116.04 226.42,-177.96 489.02,-105.27 571.31,19.02 -105.67,224.44 -412.65,178.1 -555.63,97.02z"/>
    <ellipse id="íris_2" class="fil3 str2" cx="3505.99" cy="2176.36" rx="86.49" ry="141.1"/>
    <path class="fil4" d="M3505.99 2035.26c-47.77,0 -86.49,63.17 -86.49,141.1 0,77.92 38.72,141.09 86.49,141.09 47.77,0 86.49,-63.17 86.49,-141.09 0,-77.93 -38.72,-141.1 -86.49,-141.1z"/>
    <path id="cílios_3" class="fil5 str1" d="M3262.29 2121.05c118.38,-122.84 451.34,-123.61 542.45,33.76 -17.24,30.13 -48.15,82.94 -73.68,101.96m-95.99 45.64c-84.53,23.46 -183.14,17.25 -269.7,-1.71"/>
   </g>
   <g>
    <path class="fil6" d="M2634.1 2005.87c-198.61,-110.66 -487.8,-212.15 -708.06,-140.81l8.56 -4.83c161.84,-160.47 562.3,-19.01 729.72,75.7l-30.22 69.94z"/>
   </g>
   <path id="sombrancelha" class="fil5" d="M2649.21 1970.9c-50.68,-21.9 -135.5,-98.13 -228.93,-105.45 -109.9,-8.62 -398.96,-95.46 -485.07,-4.41l-9.2 4.03"/>
   <g>
    <path class="fil6" d="M3166.39 1932.98c178.73,-75.45 581.04,-207.59 735.24,-16.77 -147.59,-122.2 -556.67,23.98 -711.14,89.05l-24.1 -72.28z"/>
   </g>
   <path id="sombrancelha_4" class="fil5" d="M3178.44 1969.12c133.65,-44.56 155.76,-105.83 353.16,-105.83 111.16,0 295.49,-37.05 370.03,52.92"/>
   <path class="fil1 str1" d="M1657.51 766.22c-184.66,448.08 -115.91,970.67 -90.37,1480.55l169.72 -797.04 361.6 -427.74c716.51,71.51 1066.07,81.15 806.54,-11.99l0 -852.32c-551.65,-20.27 -1025.42,87.39 -1247.49,608.54z"/>
   <path class="fil1 str1" d="M4073.88 766.22c184.66,448.08 115.91,970.67 90.37,1480.55l-169.72 -797.04 -361.6 -427.74c-716.51,71.51 -1066.07,81.15 -806.54,-11.99l0 -852.32c551.65,-20.27 1025.42,87.39 1247.49,608.54z"/>
  </g>
  <g id="Blusa">
   <path class="fil1 str1" d="M1905 4510l-218.33 4809.27c744.53,77.52 1671.97,63.58 2698.76,0l-480.43 -4809.27 -746.09 -538.05 -585.86 0 -668.05 538.05z"/>
   <path class="fil7 str0" d="M3302.68 4067.15c186.46,85.94 504.33,244.73 608.48,365.95 985.02,98.94 1006.69,107.41 1208.04,256.44 432.88,616.18 1353.68,2141.96 1285.8,2820.46 -26.26,262.49 -558.26,425.38 -1779.47,71.64 -211.71,-58.4 -45.04,-629.57 154.34,-590.9 663.73,257.19 711.77,72.38 929.61,85.81 -499.51,-590.27 -749.12,-987.53 -907.56,-1483.7 -27.34,1233.22 -314.42,3181.64 -50.7,3963.83 -150.48,99.55 -857.14,59.69 -1025.27,-48 -197.93,-639.61 -294.01,-1459.56 -320.95,-2498.68 -28.22,-1088.61 -61.05,-2076.18 153.45,-2290.21 35.58,-223.91 -67.94,-440.48 -255.77,-652.64z"/>
   <path class="fil8 str0" d="M2431.28 4067.15c-186.46,85.94 -504.33,244.73 -608.48,365.95 -917.8,76.9 -1154.07,463.85 -1208.26,515.94 -191.9,184.42 -360.47,1117.32 -352.78,1799.15 2.95,261.76 -26.81,978.86 180.16,2071.51 64.5,132.98 460.69,117.55 512.05,17.64 -50.58,-29.29 34.48,-3090.79 70.68,-3235.68 27.34,1233.22 221.81,3172.83 -41.91,3955.02 150.48,99.55 857.14,59.69 1025.27,-48 197.93,-639.61 294.01,-1459.56 320.95,-2498.68 28.22,-1088.61 61.05,-2076.18 -153.45,-2290.21 -35.58,-223.91 67.94,-440.48 255.77,-652.64z"/>
   <path class="fil5 str0" d="M3911.16 4433.1c-2.33,115.25 -158.76,263.22 -392.39,339.61"/>
   <path class="fil5 str0" d="M2175.51 4719.79c-162.71,-70.49 -295.9,-157.38 -352.71,-286.69"/>
   <path class="fil5 str3" d="M3671.8 4707.21c-285.35,986.49 -82.7,3900.11 178.74,4849.52"/>
   <path class="fil5 str3" d="M2044.98 4655.1c285.35,986.49 99.54,3952.22 -161.9,4901.63"/>
   <path class="fil8" d="M4834.74 7037.34l-59.4 561.62 -152.85 -44.36 42.44 -483.7c40.84,-56.09 76.69,-80.3 169.81,-33.56z"/>
  </g>
  <path class="fil1 str1" d="M4641.07 8456.55l14.19 -458c-87.28,-89.29 -132.44,-371.28 -160.92,-589.91l-1.82 -514.93c47.36,-687.42 4.73,-1509.83 -89.04,-2408.95l-308.85 -33.03c225.21,917.98 125.37,2173.33 227.1,2510.71l10.27 365.64c-43.88,260.69 113.33,885.41 309.07,1128.47z"/>
  <path class="fil0 str0" d="M4717.8 6997.74c-166.49,95.9 -209.71,265.22 -188.99,436.03 -127.35,-104.96 -276.66,-76.14 -279.08,-256.06 -26.37,-91.75 50.37,-232.25 159.92,-278.68 209.92,-19.58 239.47,12.34 308.15,98.71z"/>
  <path class="fil0 str0" d="M923.8 8868.23c-133.36,53.48 -266.78,65.78 -400.29,17.59 -83.59,65.3 -36.36,158.53 -8.26,294.36 98.01,162.91 397.52,93.9 444.89,-29.09 23.4,-136.02 16.71,-188 -36.34,-282.86z"/>
 </g>
</svg>
